<?xml version="1.0" ?><svg fill="none" height="64" viewBox="0 0 64 64" width="64" xmlns="http://www.w3.org/2000/svg"><path clip-rule="evenodd" d="M48.9541 28.8726V44.148L31.4976 52.875L14.041 44.148V28.8726L31.4976 20.1431L48.9541 28.8726Z" fill="url(#paint0_linear)" fill-rule="evenodd"/><path clip-rule="evenodd" d="M31.4966 20.1431V52.875L14.04 44.148V28.8726L31.4966 20.1431Z" fill="url(#paint1_linear)" fill-rule="evenodd"/><path clip-rule="evenodd" d="M55.502 21.2344L48.9536 28.8709L31.4971 20.1438L38.043 12.5049L55.502 21.2344Z" fill="url(#paint2_linear)" fill-rule="evenodd"/><path clip-rule="evenodd" d="M7.50194 21.2295L14.0503 28.866L31.5068 20.1389L24.9609 12.5L7.50194 21.2295Z" fill="url(#paint3_linear)" fill-rule="evenodd"/><path d="M19.502 27.4995C19.502 20.8721 24.8745 15.4995 31.502 15.4995C38.1294 15.4995 43.502 20.8721 43.502 27.4995C43.502 34.1269 38.1294 39.4995 31.502 39.4995C24.8745 39.4995 19.502 34.1269 19.502 27.4995Z" fill="white"/><path d="M30.0785 34.414V26.4733L32.7641 34.0936C33.5894 34 34.4165 33.9136 35.2454 33.8308V20.2993H33.0683V28.5235L30.1721 20.2993H27.9023V34.6993H27.9167C28.6367 34.6003 29.3567 34.5049 30.0785 34.414Z" fill="#E50A13"/><path clip-rule="evenodd" d="M48.9536 44.1465L31.4971 52.876V37.6006L48.9536 28.8711V44.1465Z" fill="url(#paint4_linear)" fill-rule="evenodd"/><path clip-rule="evenodd" d="M14.0381 44.1465L31.4971 52.876V37.6006L14.0381 28.8711V44.1465Z" fill="url(#paint5_linear)" fill-rule="evenodd"/><path clip-rule="evenodd" d="M48.9536 28.8711L55.502 34.3264L38.043 43.0559L31.4971 37.6006L48.9536 28.8711Z" fill="url(#paint6_linear)" fill-rule="evenodd"/><path clip-rule="evenodd" d="M14.0503 28.8662L7.50194 34.3215L24.9609 43.051L31.5068 37.5957L14.0503 28.8662Z" fill="url(#paint7_linear)" fill-rule="evenodd"/><defs><linearGradient gradientUnits="userSpaceOnUse" id="paint0_linear" x1="48.5866" x2="51.2941" y1="52.4947" y2="24.0582"><stop stop-color="#C6803A"/><stop offset="1" stop-color="#A4601D"/></linearGradient><linearGradient gradientUnits="userSpaceOnUse" id="paint1_linear" x1="34.0492" x2="19.5862" y1="42.2998" y2="27.0333"><stop stop-color="#9B5F1F"/><stop offset="1" stop-color="#824C1B"/></linearGradient><linearGradient gradientUnits="userSpaceOnUse" id="paint2_linear" x1="48.0907" x2="54.2351" y1="27.3284" y2="11.5505"><stop stop-color="#EEC089"/><stop offset="1" stop-color="#C18B54"/></linearGradient><linearGradient gradientUnits="userSpaceOnUse" id="paint3_linear" x1="24.4282" x2="17.6621" y1="31.1385" y2="17.7606"><stop stop-color="#EEC089"/><stop offset="1" stop-color="#C18B54"/></linearGradient><linearGradient gradientUnits="userSpaceOnUse" id="paint4_linear" x1="46.677" x2="44.6244" y1="47.2115" y2="32.6185"><stop stop-color="#9B5F1F"/><stop offset="1" stop-color="#824C1B"/></linearGradient><linearGradient gradientUnits="userSpaceOnUse" id="paint5_linear" x1="16.1824" x2="18.5313" y1="47.0171" y2="32.5478"><stop stop-color="#C6803A"/><stop offset="1" stop-color="#A4601D"/></linearGradient><linearGradient gradientUnits="userSpaceOnUse" id="paint6_linear" x1="27.5986" x2="32.5385" y1="36.0173" y2="47.3444"><stop stop-color="#EEC089"/><stop offset="1" stop-color="#C18B54"/></linearGradient><linearGradient gradientUnits="userSpaceOnUse" id="paint7_linear" x1="34.1327" x2="28.0883" y1="36.4153" y2="53.7257"><stop stop-color="#EEC089"/><stop offset="1" stop-color="#C18B54"/></linearGradient></defs></svg>